<svg width="450" height="510" viewBox="0 0 450 510" fill="none" xmlns="http://www.w3.org/2000/svg">
<g id="Frame 1">
<rect width="450" height="510" fill="white"/>
<g id="decks">
<g id="deck1">
<rect id="Rectangle 1" x="24.5" y="280.243" width="145.266" height="207.257" rx="4.5" fill="white" stroke="#CACACA"/>
<g id="math-svgrepo-com 1" clip-path="url(#clip0_1_3)">
<path id="Vector" d="M109.731 317.337L124.62 314.447" stroke="#71F9F5" stroke-width="3.5" stroke-linecap="round" stroke-linejoin="round"/>
<path id="Vector_2" d="M84.9418 322.149L99.8307 319.259" stroke="#71F9F5" stroke-width="3.5" stroke-linecap="round" stroke-linejoin="round"/>
<path id="Vector_3" d="M113.578 337.155L128.467 334.265" stroke="#71F9F5" stroke-width="3.5" stroke-linecap="round" stroke-linejoin="round"/>
<path id="Vector_4" d="M115.983 349.548L130.872 346.658" stroke="#71F9F5" stroke-width="3.5" stroke-linecap="round" stroke-linejoin="round"/>
<path id="Vector_5" d="M118.676 323.305L115.79 308.437" stroke="#71F9F5" stroke-width="3.5" stroke-linecap="round" stroke-linejoin="round"/>
<path id="Vector_6" d="M91.4359 355.608L103.439 337.85" stroke="#71F9F5" stroke-width="3.5" stroke-linecap="round" stroke-linejoin="round"/>
<path id="Vector_7" d="M106.325 352.718L88.5501 340.739" stroke="#71F9F5" stroke-width="3.5" stroke-linecap="round" stroke-linejoin="round"/>
</g>
<g id="parabola_svgrepo.com" clip-path="url(#clip1_1_3)">
<path id="Vector_8" d="M157 422H97V482H157V422Z" fill="#71F9F5" fill-opacity="0.01"/>
<path id="Vector_9" d="M102 453.25H104.5C112 453.25 117 433.25 127 433.25C137 433.25 142 453.25 149.5 453.25H152" stroke="#71F9F5" stroke-width="3.5" stroke-linecap="round" stroke-linejoin="round"/>
<path id="Vector_10" d="M102 463.25V470.75" stroke="#71F9F5" stroke-width="3.5" stroke-linecap="round" stroke-linejoin="round"/>
<path id="Vector_11" d="M127 463.25V470.75" stroke="#71F9F5" stroke-width="3.5" stroke-linecap="round" stroke-linejoin="round"/>
<path id="Vector_12" d="M152 463.25V470.75" stroke="#71F9F5" stroke-width="3.5" stroke-linecap="round" stroke-linejoin="round"/>
<path id="Vector_13" d="M102 467H152" stroke="#71F9F5" stroke-width="3.5" stroke-linecap="round" stroke-linejoin="round"/>
</g>
<g id="square-root-of-x_svgrepo.com">
<path id="primary" d="M64 409L74 419" stroke="#71F9F5" stroke-width="3.5" stroke-linecap="round" stroke-linejoin="round"/>
<path id="primary_2" d="M74 409L64 419" stroke="#71F9F5" stroke-width="3.5" stroke-linecap="round" stroke-linejoin="round"/>
<path id="primary_3" d="M36.5 409H40.075C40.5089 409 40.9352 409.113 41.3122 409.328C41.6892 409.543 42.0037 409.852 42.225 410.225L49 421.5L55.975 398.275C56.1355 397.744 56.4683 397.281 56.921 396.959C57.3736 396.638 57.9204 396.476 58.475 396.5H81.5" stroke="#71F9F5" stroke-width="3.5" stroke-linecap="round" stroke-linejoin="round"/>
</g>
</g>
<g id="deck2">
<rect id="Rectangle 2" x="144.471" y="158.76" width="145.266" height="207.257" rx="4.5" fill="white" stroke="#CACACA"/>
<path id="Vector_14" d="M245.057 197.068C244.186 198.51 244.653 200.383 246.1 201.251C246.593 201.547 247.137 201.688 247.674 201.688C248.712 201.688 249.723 201.162 250.298 200.212C250.569 199.762 251.267 198.955 251.942 198.174C254.8 194.871 260.747 187.996 254.652 182.007C252.494 179.887 248.773 180.34 242.185 182.316C241.907 181.062 241.732 179.909 241.732 179.05C241.733 177.367 240.364 176.001 238.675 176C236.987 176 235.617 177.365 235.617 179.047C235.616 180.492 235.892 182.299 236.333 184.181C235.869 184.335 235.408 184.487 234.921 184.648C233.32 185.18 231.382 185.824 229.414 186.44C227.694 183.281 225.906 180.381 224.714 179.496C223.359 178.49 221.443 178.77 220.434 180.119C219.454 181.431 219.69 183.271 220.946 184.296C221.349 184.73 222.215 186.087 223.369 188.145C221.487 188.587 219.97 188.81 219.267 188.607C217.731 187.949 215.944 188.642 215.264 190.17C214.578 191.709 215.275 193.51 216.819 194.192C218.923 195.124 222.024 194.804 226.293 193.698C227.063 195.239 227.875 196.921 228.71 198.728C233.359 208.8 234.494 213.475 234.446 214.539C234.368 216.22 235.673 217.646 237.36 217.723C237.408 217.726 237.456 217.727 237.502 217.727C239.127 217.727 240.479 216.453 240.555 214.819C240.733 210.955 237.086 202.232 233.995 195.596C233.609 194.767 232.993 193.461 232.245 191.939C233.69 191.477 235.218 190.974 236.855 190.43C237.259 190.296 237.693 190.152 238.138 190.004C238.859 191.862 239.639 193.475 240.351 194.478C240.947 195.319 241.893 195.768 242.852 195.768C243.462 195.768 244.077 195.587 244.614 195.209C245.994 194.238 246.322 192.337 245.347 190.962C244.934 190.379 244.448 189.361 243.97 188.147C246.832 187.292 249.47 186.625 250.668 186.691C251.806 188.161 250.95 189.981 247.309 194.191C246.391 195.256 245.598 196.173 245.057 197.068Z" fill="#71F9F5"/>
<g id="kanji-character_svgrepo.com" clip-path="url(#clip2_1_3)">
<g id="Group">
<g id="Group_2">
<path id="Vector_15" d="M206.096 264.527L204.455 263.295C203.903 262.881 203.211 262.652 202.507 262.652C201.694 262.652 200.956 262.944 200.426 263.474C199.863 264.036 198.69 264.531 197.914 264.531C197.404 264.531 196.959 263.867 196.959 263.109V260.424C196.959 259.642 197.597 259.004 198.38 259.004H203.276C206.135 259.004 206.555 258.477 206.758 258.225C206.967 257.966 207.044 257.635 206.974 257.315C206.882 256.902 206.603 256.513 206.096 256.09L204.455 254.857C203.904 254.443 203.211 254.215 202.507 254.215C201.694 254.215 200.956 254.507 200.426 255.037C199.863 255.6 198.472 256.093 197.449 256.093H190.142C189.36 256.093 188.72 255.455 188.72 254.672V251.183C188.72 250.399 189.359 249.761 190.142 249.761H201.066C203.922 249.761 204.344 249.235 204.548 248.982C204.756 248.723 204.834 248.392 204.763 248.073C204.672 247.66 204.392 247.27 203.886 246.847L202.244 245.614C201.692 245.2 201 244.972 200.296 244.972C199.484 244.972 198.745 245.264 198.215 245.794C197.652 246.357 196.261 246.85 195.238 246.85H190.142C189.359 246.85 188.721 246.212 188.721 245.429V243.346C188.721 242.435 189.314 241.595 189.901 241.236C190.34 240.967 190.547 240.535 190.461 240.081C190.228 238.884 187.706 238.406 187.205 238.321C187.077 238.3 186.949 238.289 186.825 238.289C185.444 238.289 184.404 239.513 184.404 241.136V245.429C184.404 246.212 183.765 246.85 182.983 246.85H175.273C174.105 246.85 172.146 247.039 172.146 248.306C172.146 249.573 174.105 249.761 175.273 249.761H182.982C183.765 249.761 184.403 250.399 184.403 251.183V254.672C184.403 255.455 183.764 256.093 182.982 256.093H172.861C171.693 256.093 169.734 256.282 169.734 257.549C169.734 258.815 171.693 259.004 172.861 259.004H191.22C192.004 259.004 192.642 259.642 192.642 260.426V263.111C192.642 263.894 192.004 264.532 191.22 264.532H173.664C172.496 264.532 170.536 264.721 170.536 265.988C170.536 267.255 172.496 267.444 173.664 267.444H191.219C192.002 267.444 192.641 268.081 192.641 268.865V278.647C192.641 279.381 192.418 279.602 191.686 279.602H188.936C186.987 279.602 185.306 279.602 185.306 280.858C185.306 281.855 186.422 282.103 187.717 282.388C187.873 282.421 188.026 282.458 188.174 282.492L189.882 282.893C190.197 282.958 190.229 283.026 190.229 283.268C190.229 283.873 190.36 284.343 190.63 284.703C190.944 285.123 191.432 285.354 192.005 285.354C192.137 285.354 192.278 285.341 192.428 285.316C193.38 285.158 194.327 284.69 195.245 283.926C196.387 282.949 196.96 281.514 196.96 279.652V268.865C196.96 268.083 197.598 267.443 198.381 267.443H203.277C206.136 267.443 206.556 266.917 206.759 266.665C206.968 266.405 207.046 266.074 206.975 265.755C206.883 265.339 206.604 264.95 206.096 264.527Z" fill="#71F9F5"/>
<path id="Vector_16" d="M169.248 252.016L168.549 251.579C168.525 251.366 168.576 250.806 168.943 250.059C169.849 248.216 170.745 246.346 171.606 244.501C172.026 243.604 173.056 242.795 173.81 242.532C174.322 242.354 174.65 241.947 174.686 241.444C174.777 240.203 173.008 238.987 172.38 238.658L172.189 238.558C171.757 238.332 171.302 238.217 170.84 238.217C169.667 238.217 168.651 238.973 168.254 240.143C165.17 249.223 161.916 256.262 158.578 261.065C158.447 261.254 158.309 261.447 158.171 261.638C157.293 262.862 156.91 263.43 157.018 264.028C157.066 264.292 157.212 264.521 157.433 264.667C157.604 264.78 157.807 264.839 158.022 264.839C158.926 264.839 160.271 263.583 160.808 263.043C161.97 261.874 163.078 260.538 164.106 259.064V283.871C164.106 285.645 165.216 285.783 165.556 285.783C165.827 285.783 166.11 285.712 166.42 285.568C167.721 284.961 168.423 282.966 168.423 281.398V256.407C168.423 255.431 168.891 254.624 169.215 254.44C169.868 254.068 170.018 253.604 170.03 253.28C170.046 252.798 169.784 252.373 169.248 252.016Z" fill="#71F9F5"/>
<path id="Vector_17" d="M178.274 272.484C179.173 273.76 179.89 275.538 180.405 277.768C180.411 277.793 180.419 277.819 180.426 277.844M178.274 272.484L178.683 272.197C178.683 272.197 178.683 272.197 178.683 272.196M178.274 272.484C177.964 272.043 177.56 271.629 177.202 271.263L177.193 271.254L177.192 271.252C176.655 270.701 176.3 270.336 176.223 269.872C176.178 269.595 176.254 269.315 176.433 269.103M178.274 272.484L178.683 272.196C178.683 272.196 178.683 272.196 178.683 272.196M178.683 272.196C179.633 273.544 180.369 275.389 180.892 277.655L180.892 277.656C180.892 277.656 180.892 277.656 180.892 277.657L180.893 277.659L180.895 277.667C180.897 277.673 180.899 277.681 180.902 277.691M178.683 272.196C178.349 271.722 177.921 271.284 177.572 270.925C177.565 270.919 177.558 270.912 177.552 270.905M180.902 277.691C180.902 277.689 180.901 277.687 180.901 277.686L180.426 277.844M180.902 277.691C180.903 277.692 180.903 277.694 180.904 277.695L180.426 277.844M180.902 277.691C181.123 278.351 181.412 278.701 181.67 278.888C181.928 279.075 182.199 279.133 182.441 279.133C183.101 279.133 183.572 278.923 183.883 278.587C184.198 278.247 184.402 277.715 184.402 276.972C184.402 274.225 182.923 271.95 179.843 270.209M180.426 277.844C180.919 279.322 181.794 279.633 182.441 279.633C183.982 279.633 184.902 278.638 184.902 276.972C184.902 274 183.283 271.579 180.089 269.773C179.362 269.364 178.008 268.752 177.256 268.752C176.822 268.752 176.568 268.943 176.433 269.103M176.433 269.103L176.717 269.791C176.737 269.914 176.796 270.047 176.934 270.227C177.077 270.416 177.276 270.621 177.552 270.905M176.433 269.103L176.717 269.791C176.695 269.656 176.732 269.524 176.815 269.426L176.815 269.426C176.871 269.36 176.991 269.252 177.256 269.252C177.531 269.252 177.982 269.373 178.5 269.575C179 269.77 179.498 270.015 179.843 270.209M177.552 270.905C177.552 270.905 177.551 270.905 177.551 270.905L177.194 271.254L177.552 270.905C177.552 270.905 177.552 270.905 177.552 270.905ZM179.843 270.209C179.843 270.209 179.843 270.209 179.843 270.209L180.089 269.773L179.842 270.208C179.843 270.208 179.843 270.208 179.843 270.209Z" fill="#71F9F5" stroke="#71F9F5"/>
</g>
</g>
</g>
<g id="Group 1">
<line id="Line 3" x1="225.5" y1="334.5" x2="262.548" y2="334.5" stroke="#71F9F5" stroke-width="5" stroke-linecap="round"/>
<line id="Line 1" x1="230.387" y1="309.5" x2="254.661" y2="309.5" stroke="#71F9F5" stroke-width="5" stroke-linecap="round"/>
<line id="Line 2" x1="229.524" y1="322" x2="256.539" y2="322" stroke="#71F9F5" stroke-width="5" stroke-linecap="round"/>
</g>
</g>
<g id="deck3">
<rect id="Rectangle 3" x="279.234" y="21.5" width="145.266" height="207.257" rx="4.5" fill="white" stroke="#CACACA"/>
<g id="chemistry_svgrepo.com">
<path id="Vector_18" d="M314.25 55.75L319.25 63.25L314.25 70.75H306.75L301.75 63.25L306.75 55.75H314.25Z" stroke="#71F9F5" stroke-width="3.5" stroke-linecap="round" stroke-linejoin="round"/>
<path id="Vector_19" d="M326.75 48.25L331.75 55.75L326.75 63.25H319.25L314.25 55.75L319.25 48.25H326.75Z" stroke="#71F9F5" stroke-width="3.5" stroke-linecap="round" stroke-linejoin="round"/>
<path id="Vector_20" d="M326.75 78.25L331.75 85.75" stroke="#71F9F5" stroke-width="3.5" stroke-linecap="round" stroke-linejoin="round"/>
<path id="Vector_21" d="M301.75 48.25L306.75 55.75" stroke="#71F9F5" stroke-width="3.5" stroke-linecap="round" stroke-linejoin="round"/>
<path id="Vector_22" d="M319.25 78.25L316.75 82" stroke="#71F9F5" stroke-width="3.5" stroke-linecap="round" stroke-linejoin="round"/>
<path id="Vector_23" d="M306.75 70.75L304.25 74.5" stroke="#71F9F5" stroke-width="3.5" stroke-linecap="round" stroke-linejoin="round"/>
<path id="Vector_24" d="M301.75 63.25H299.25" stroke="#71F9F5" stroke-width="3.5" stroke-linecap="round" stroke-linejoin="round"/>
<path id="Vector_25" d="M331.75 70.75H339.25" stroke="#71F9F5" stroke-width="3.5" stroke-linecap="round" stroke-linejoin="round"/>
<path id="Vector_26" d="M326.75 63.25L331.75 70.75L326.75 78.25H319.25L314.25 70.75L319.25 63.25H326.75Z" stroke="#71F9F5" stroke-width="3.5" stroke-linecap="round" stroke-linejoin="round"/>
<path id="Vector_27" d="M314.25 87C314.94 87 315.5 86.4404 315.5 85.75C315.5 85.0596 314.94 84.5 314.25 84.5C313.56 84.5 313 85.0596 313 85.75C313 86.4404 313.56 87 314.25 87Z" fill="#71F9F5"/>
<path id="Vector_28" d="M301.75 79.5C302.44 79.5 303 78.9404 303 78.25C303 77.5596 302.44 77 301.75 77C301.06 77 300.5 77.5596 300.5 78.25C300.5 78.9404 301.06 79.5 301.75 79.5Z" fill="#71F9F5"/>
<path id="Vector_29" d="M294.25 64.5C294.94 64.5 295.5 63.9404 295.5 63.25C295.5 62.5596 294.94 62 294.25 62C293.56 62 293 62.5596 293 63.25C293 63.9404 293.56 64.5 294.25 64.5Z" fill="#71F9F5"/>
</g>
<g id="flask-alt_svgrepo.com">
<path id="Vector_30" d="M389.5 107.5V124.243C389.5 124.736 389.646 125.219 389.92 125.63L401.909 143.613C403.016 145.275 401.825 147.5 399.829 147.5H364.171C362.175 147.5 360.984 145.275 362.091 143.613L374.08 125.63C374.354 125.219 374.5 124.736 374.5 124.243V107.5" stroke="#71F9F5" stroke-width="3.5" stroke-linejoin="round"/>
<path id="Vector_31" d="M394.25 140.5L389 133.5C388.528 132.87 387.787 132.5 387 132.5H377C376.213 132.5 375.472 132.87 375 133.5L369.75 140.5C369.132 141.324 369.72 142.5 370.75 142.5H393.25C394.28 142.5 394.868 141.324 394.25 140.5Z" fill="#71F9F5"/>
<path id="Vector_32" d="M369.5 107.5H394.5" stroke="#71F9F5" stroke-width="3.5" stroke-linecap="round" stroke-linejoin="round"/>
</g>
<g id="science_svgrepo.com">
<path id="Vector_33" d="M317.953 211.184C322.608 211.184 326.381 200.804 326.381 188C326.381 175.196 322.608 164.816 317.953 164.816C313.298 164.816 309.525 175.196 309.525 188C309.525 200.804 313.298 211.184 317.953 211.184Z" stroke="#71F9F5" stroke-width="3.5" stroke-linecap="round"/>
<path id="Vector_34" d="M338.029 199.593C340.357 195.562 333.254 187.104 322.165 180.701C311.076 174.299 300.2 172.377 297.873 176.408C295.545 180.439 302.648 188.897 313.737 195.299C324.826 201.702 335.702 203.624 338.029 199.593Z" stroke="#71F9F5" stroke-width="3.5" stroke-linecap="round"/>
<path id="Vector_35" d="M322.262 195.437C333.351 189.035 340.454 180.577 338.126 176.546C335.799 172.515 324.923 174.437 313.834 180.84C302.745 187.242 295.642 195.7 297.97 199.731C300.297 203.762 311.173 201.84 322.262 195.437Z" stroke="#71F9F5" stroke-width="3.5" stroke-linecap="round"/>
<path id="Vector_36" d="M318.187 190.841C319.679 190.841 320.887 189.632 320.887 188.141C320.887 186.649 319.679 185.441 318.187 185.441C316.696 185.441 315.487 186.649 315.487 188.141C315.487 189.632 316.696 190.841 318.187 190.841Z" stroke="#71F9F5" stroke-width="3.5" stroke-linecap="round"/>
</g>
</g>
</g>
</g>
<defs>
<clipPath id="clip0_1_3">
<rect width="50" height="50" fill="white" transform="translate(78 311.527) rotate(-10.9841)"/>
</clipPath>
<clipPath id="clip1_1_3">
<rect width="60" height="60" fill="white" transform="translate(97 422)"/>
</clipPath>
<clipPath id="clip2_1_3">
<rect width="50" height="50" fill="white" transform="translate(157 237)"/>
</clipPath>
</defs>
</svg>
